# MagicaVoxel @ Ephtracy

# group
o 

# material
mtllib checkout_counter.mtl
usemtl palette

# normals
vn -1 0 0
vn 1 0 0
vn 0 0 1
vn 0 0 -1
vn 0 -1 0
vn 0 1 0

# texcoords
vt 0.837891 0.5
vt 0.900391 0.5
vt 0.958984 0.5
vt 0.974609 0.5
vt 0.990234 0.5

# verts
v -2.7 0 3.7
v -2.7 0 3.6
v -2.7 0.1 3.7
v -2.7 0.1 3.6
v -2.7 0.2 3.8
v -2.7 0.2 3.5
v -2.7 0.6 3.8
v -2.7 0.6 3.5
v -2.6 0 3.8
v -2.6 0 3.7
v -2.6 0 3.6
v -2.6 0 3.5
v -2.6 0.1 3.8
v -2.6 0.1 3.7
v -2.6 0.1 3.6
v -2.6 0.1 3.5
v -2.6 0.2 3.7
v -2.6 0.2 3.6
v -2.5 0 4.5
v -2.5 0 4.1
v -2.5 0.5 4.6
v -2.5 0.5 4.5
v -2.5 0.5 4.1
v -2.5 0.5 4
v -2.5 0.7 4.6
v -2.5 0.7 4
v -2.3 0 3.4
v -2.3 0 3
v -2.3 0.5 4
v -2.3 0.5 3.4
v -2.3 0.5 3
v -2.3 0.5 2.9
v -2.3 0.6 4
v -2.3 0.6 2.9
v -2.2 0 4.1
v -2.2 0 3.4
v -2.2 0.5 4.1
v -2.2 0.5 3.4
v -1.9 0.6 4.5
v -1.9 0.6 4
v -1.9 0.7 4.5
v -1.9 0.7 4
v -2.6 0.3 3.8
v -2.6 0.3 3.5
v -2.6 0.6 3.8
v -2.6 0.6 3.5
v -2.5 0 3.8
v -2.5 0 3.7
v -2.5 0 3.6
v -2.5 0 3.5
v -2.5 0.1 3.8
v -2.5 0.1 3.7
v -2.5 0.1 3.6
v -2.5 0.1 3.5
v -2.5 0.2 3.7
v -2.5 0.2 3.6
v -2.4 0 3.7
v -2.4 0 3.6
v -2.4 0.1 3.7
v -2.4 0.1 3.6
v -2.4 0.2 3.8
v -2.4 0.2 3.5
v -2.4 0.3 3.8
v -2.4 0.3 3.5
v -2.4 0.6 4.5
v -2.4 0.6 4.1
v -2.4 0.6 4
v -2.4 0.7 4.5
v -2.4 0.7 4
v -1.9 0 4.5
v -1.9 0 3
v -1.9 0.5 4.5
v -1.9 0.5 3
v -1.8 0.5 4.6
v -1.8 0.5 2.9
v -1.8 0.6 4
v -1.8 0.6 2.9
v -1.8 0.7 4.6
v -1.8 0.7 4
v -2.5 0.5 4.6
v -2.5 0.7 4.6
v -1.8 0.5 4.6
v -1.8 0.7 4.6
v -2.5 0 4.5
v -2.5 0.5 4.5
v -1.9 0 4.5
v -1.9 0.5 4.5
v -2.7 0.2 3.8
v -2.7 0.6 3.8
v -2.6 0 3.8
v -2.6 0.1 3.8
v -2.6 0.3 3.8
v -2.6 0.6 3.8
v -2.5 0 3.8
v -2.5 0.1 3.8
v -2.4 0.2 3.8
v -2.4 0.3 3.8
v -2.7 0 3.7
v -2.7 0.1 3.7
v -2.6 0 3.7
v -2.6 0.1 3.7
v -2.6 0.2 3.7
v -2.5 0 3.7
v -2.5 0.1 3.7
v -2.5 0.2 3.7
v -2.4 0 3.7
v -2.4 0.1 3.7
v -2.3 0 3.4
v -2.3 0.5 3.4
v -2.2 0 3.4
v -2.2 0.5 3.4
v -2.4 0.6 4.5
v -2.4 0.7 4.5
v -1.9 0.6 4.5
v -1.9 0.7 4.5
v -2.5 0 4.1
v -2.5 0.5 4.1
v -2.2 0 4.1
v -2.2 0.5 4.1
v -2.5 0.5 4
v -2.5 0.7 4
v -2.4 0.6 4
v -2.4 0.7 4
v -2.3 0.5 4
v -2.3 0.6 4
v -1.9 0.6 4
v -1.9 0.7 4
v -1.8 0.6 4
v -1.8 0.7 4
v -2.7 0 3.6
v -2.7 0.1 3.6
v -2.6 0 3.6
v -2.6 0.1 3.6
v -2.6 0.2 3.6
v -2.5 0 3.6
v -2.5 0.1 3.6
v -2.5 0.2 3.6
v -2.4 0 3.6
v -2.4 0.1 3.6
v -2.7 0.2 3.5
v -2.7 0.6 3.5
v -2.6 0 3.5
v -2.6 0.1 3.5
v -2.6 0.3 3.5
v -2.6 0.6 3.5
v -2.5 0 3.5
v -2.5 0.1 3.5
v -2.4 0.2 3.5
v -2.4 0.3 3.5
v -2.3 0 3
v -2.3 0.5 3
v -1.9 0 3
v -1.9 0.5 3
v -2.3 0.5 2.9
v -2.3 0.6 2.9
v -1.8 0.5 2.9
v -1.8 0.6 2.9
v -2.5 0 4.5
v -1.9 0 4.5
v -2.5 0 4.1
v -2.2 0 4.1
v -2.6 0 3.8
v -2.5 0 3.8
v -2.7 0 3.7
v -2.6 0 3.7
v -2.5 0 3.7
v -2.4 0 3.7
v -2.7 0 3.6
v -2.6 0 3.6
v -2.5 0 3.6
v -2.4 0 3.6
v -2.6 0 3.5
v -2.5 0 3.5
v -2.3 0 3.4
v -2.2 0 3.4
v -2.3 0 3
v -1.9 0 3
v -2.7 0.2 3.8
v -2.4 0.2 3.8
v -2.6 0.2 3.7
v -2.5 0.2 3.7
v -2.6 0.2 3.6
v -2.5 0.2 3.6
v -2.7 0.2 3.5
v -2.4 0.2 3.5
v -2.5 0.5 4.6
v -1.8 0.5 4.6
v -2.5 0.5 4.5
v -1.9 0.5 4.5
v -2.5 0.5 4.1
v -2.2 0.5 4.1
v -2.5 0.5 4
v -2.3 0.5 4
v -2.3 0.5 3.4
v -2.2 0.5 3.4
v -2.3 0.5 3
v -1.9 0.5 3
v -2.3 0.5 2.9
v -1.8 0.5 2.9
v -2.6 0.1 3.8
v -2.5 0.1 3.8
v -2.7 0.1 3.7
v -2.6 0.1 3.7
v -2.5 0.1 3.7
v -2.4 0.1 3.7
v -2.7 0.1 3.6
v -2.6 0.1 3.6
v -2.5 0.1 3.6
v -2.4 0.1 3.6
v -2.6 0.1 3.5
v -2.5 0.1 3.5
v -2.6 0.3 3.8
v -2.4 0.3 3.8
v -2.6 0.3 3.5
v -2.4 0.3 3.5
v -2.4 0.6 4.5
v -1.9 0.6 4.5
v -2.4 0.6 4.1
v -2.2 0.6 4.1
v -2.4 0.6 4
v -2.3 0.6 4
v -1.9 0.6 4
v -1.8 0.6 4
v -2.7 0.6 3.8
v -2.6 0.6 3.8
v -2.7 0.6 3.5
v -2.6 0.6 3.5
v -2.2 0.6 3
v -1.9 0.6 3
v -2.3 0.6 2.9
v -1.8 0.6 2.9
v -2.5 0.7 4.6
v -1.8 0.7 4.6
v -2.4 0.7 4.5
v -1.9 0.7 4.5
v -2.5 0.7 4
v -2.4 0.7 4
v -1.9 0.7 4
v -1.8 0.7 4

# faces
f 3/1/1 2/1/1 1/1/1
f 4/1/1 2/1/1 3/1/1
f 7/1/1 6/1/1 5/1/1
f 8/1/1 6/1/1 7/1/1
f 13/1/1 10/1/1 9/1/1
f 14/1/1 10/1/1 13/1/1
f 15/1/1 12/1/1 11/1/1
f 16/1/1 12/1/1 15/1/1
f 17/1/1 15/1/1 14/1/1
f 18/1/1 15/1/1 17/1/1
f 22/3/1 20/3/1 19/3/1
f 23/3/1 20/3/1 22/3/1
f 25/4/1 22/4/1 21/4/1
f 25/4/1 24/4/1 23/4/1
f 25/4/1 23/4/1 22/4/1
f 26/4/1 24/4/1 25/4/1
f 30/3/1 28/3/1 27/3/1
f 31/3/1 28/3/1 30/3/1
f 33/4/1 30/4/1 29/4/1
f 33/4/1 32/4/1 31/4/1
f 33/4/1 31/4/1 30/4/1
f 34/4/1 32/4/1 33/4/1
f 37/3/1 36/3/1 35/3/1
f 38/3/1 36/3/1 37/3/1
f 41/4/1 40/4/1 39/4/1
f 42/4/1 40/4/1 41/4/1
f 43/1/2 44/1/2 45/1/2
f 45/1/2 44/1/2 46/1/2
f 47/1/2 48/1/2 51/1/2
f 51/1/2 48/1/2 52/1/2
f 49/1/2 50/1/2 53/1/2
f 53/1/2 50/1/2 54/1/2
f 52/1/2 53/1/2 55/1/2
f 55/1/2 53/1/2 56/1/2
f 57/1/2 58/1/2 59/1/2
f 59/1/2 58/1/2 60/1/2
f 61/1/2 62/1/2 63/1/2
f 63/1/2 62/1/2 64/1/2
f 65/4/2 66/4/2 68/4/2
f 66/4/2 67/4/2 68/4/2
f 68/4/2 67/4/2 69/4/2
f 70/3/2 71/3/2 72/3/2
f 72/3/2 71/3/2 73/3/2
f 74/4/2 75/4/2 76/4/2
f 76/4/2 75/4/2 77/4/2
f 74/4/2 76/4/2 78/4/2
f 78/4/2 76/4/2 79/4/2
f 82/4/3 81/4/3 80/4/3
f 83/4/3 81/4/3 82/4/3
f 86/3/3 85/3/3 84/3/3
f 87/3/3 85/3/3 86/3/3
f 92/1/3 89/1/3 88/1/3
f 93/1/3 89/1/3 92/1/3
f 94/1/3 91/1/3 90/1/3
f 95/1/3 91/1/3 94/1/3
f 96/1/3 92/1/3 88/1/3
f 97/1/3 92/1/3 96/1/3
f 100/1/3 99/1/3 98/1/3
f 101/1/3 99/1/3 100/1/3
f 104/1/3 102/1/3 101/1/3
f 105/1/3 102/1/3 104/1/3
f 106/1/3 104/1/3 103/1/3
f 107/1/3 104/1/3 106/1/3
f 110/3/3 109/3/3 108/3/3
f 111/3/3 109/3/3 110/3/3
f 112/4/4 113/4/4 114/4/4
f 114/4/4 113/4/4 115/4/4
f 116/3/4 117/3/4 118/3/4
f 118/3/4 117/3/4 119/3/4
f 120/4/4 121/4/4 122/4/4
f 122/4/4 121/4/4 123/4/4
f 120/4/4 122/4/4 124/4/4
f 124/4/4 122/4/4 125/4/4
f 126/4/4 127/4/4 128/4/4
f 128/4/4 127/4/4 129/4/4
f 130/1/4 131/1/4 132/1/4
f 132/1/4 131/1/4 133/1/4
f 133/1/4 134/1/4 136/1/4
f 136/1/4 134/1/4 137/1/4
f 135/1/4 136/1/4 138/1/4
f 138/1/4 136/1/4 139/1/4
f 140/1/4 141/1/4 144/1/4
f 144/1/4 141/1/4 145/1/4
f 142/1/4 143/1/4 146/1/4
f 146/1/4 143/1/4 147/1/4
f 140/1/4 144/1/4 148/1/4
f 148/1/4 144/1/4 149/1/4
f 150/3/4 151/3/4 152/3/4
f 152/3/4 151/3/4 153/3/4
f 154/4/4 155/4/4 156/4/4
f 156/4/4 155/4/4 157/4/4
f 160/3/5 159/3/5 158/3/5
f 161/3/5 159/3/5 160/3/5
f 165/1/5 163/1/5 162/1/5
f 166/1/5 163/1/5 165/1/5
f 168/1/5 165/1/5 164/1/5
f 168/1/5 167/1/5 166/1/5
f 168/1/5 166/1/5 165/1/5
f 169/1/5 167/1/5 168/1/5
f 170/1/5 167/1/5 169/1/5
f 171/1/5 167/1/5 170/1/5
f 172/1/5 170/1/5 169/1/5
f 173/1/5 170/1/5 172/1/5
f 175/3/5 159/3/5 161/3/5
f 176/3/5 175/3/5 174/3/5
f 177/3/5 159/3/5 175/3/5
f 177/3/5 175/3/5 176/3/5
f 180/1/5 179/1/5 178/1/5
f 181/1/5 179/1/5 180/1/5
f 182/1/5 180/1/5 178/1/5
f 183/1/5 179/1/5 181/1/5
f 184/1/5 182/1/5 178/1/5
f 184/1/5 183/1/5 182/1/5
f 185/1/5 179/1/5 183/1/5
f 185/1/5 183/1/5 184/1/5
f 188/4/5 187/4/5 186/4/5
f 189/4/5 187/4/5 188/4/5
f 192/4/5 191/4/5 190/4/5
f 193/4/5 191/4/5 192/4/5
f 194/4/5 191/4/5 193/4/5
f 195/4/5 191/4/5 194/4/5
f 197/4/5 187/4/5 189/4/5
f 198/4/5 197/4/5 196/4/5
f 199/4/5 187/4/5 197/4/5
f 199/4/5 197/4/5 198/4/5
f 200/1/6 201/1/6 203/1/6
f 203/1/6 201/1/6 204/1/6
f 202/1/6 203/1/6 206/1/6
f 206/1/6 203/1/6 207/1/6
f 204/1/6 205/1/6 208/1/6
f 208/1/6 205/1/6 209/1/6
f 207/1/6 208/1/6 210/1/6
f 210/1/6 208/1/6 211/1/6
f 212/1/6 213/1/6 214/1/6
f 214/1/6 213/1/6 215/1/6
f 216/2/6 217/2/6 218/2/6
f 218/2/6 217/2/6 219/2/6
f 218/4/6 219/4/6 220/4/6
f 220/4/6 219/4/6 221/4/6
f 219/2/6 217/2/6 222/2/6
f 224/1/6 225/1/6 226/1/6
f 226/1/6 225/1/6 227/1/6
f 221/4/6 219/4/6 228/4/6
f 219/2/6 222/2/6 228/2/6
f 222/4/6 223/4/6 229/4/6
f 228/2/6 222/2/6 229/2/6
f 221/4/6 228/4/6 230/4/6
f 228/4/6 229/4/6 230/4/6
f 229/4/6 223/4/6 231/4/6
f 230/4/6 229/4/6 231/4/6
f 232/4/6 233/4/6 234/4/6
f 234/4/6 233/4/6 235/4/6
f 232/4/6 234/4/6 236/4/6
f 236/4/6 234/4/6 237/4/6
f 235/4/6 233/4/6 238/4/6
f 238/4/6 233/4/6 239/4/6
