# MagicaVoxel @ Ephtracy

# group
o 

# material
mtllib large_cooler_mid.mtl
usemtl palette

# normals
vn 1 0 0
vn -1 0 0
vn 0 0 -1
vn 0 0 1
vn 0 -1 0
vn 0 1 0

# texcoords
vt 0.541016 0.5
vt 0.919922 0.5
vt 0.970703 0.5
vt 0.974609 0.5

# verts
v -1.1 0 -2.1
v -1.1 0 -1.1
v -1.1 0.4 -2.1
v -1.1 0.4 -1.1
v -1.1 1.7 -2.1
v -1.1 1.7 -1.1
v -1.1 1.8 -2.1
v -1.1 1.8 -1.1
v -1.3 0.7 -2.1
v -1.3 0.7 -1.1
v -1.3 0.8 -2.1
v -1.3 0.8 -1.1
v -1.3 1 -2.1
v -1.3 1 -1.1
v -1.3 1.1 -2.1
v -1.3 1.1 -1.1
v -1.3 1.3 -2.1
v -1.3 1.3 -1.1
v -1.3 1.4 -2.1
v -1.3 1.4 -1.1
v -1.7 0.4 -2.1
v -1.7 0.4 -1.1
v -1.7 0.7 -2.1
v -1.7 0.7 -1.1
v -1.7 0.8 -2.1
v -1.7 0.8 -1.1
v -1.7 1 -2.1
v -1.7 1 -1.1
v -1.7 1.1 -2.1
v -1.7 1.1 -1.1
v -1.7 1.3 -2.1
v -1.7 1.3 -1.1
v -1.7 1.4 -2.1
v -1.7 1.4 -1.1
v -1.7 1.6 -2.1
v -1.7 1.6 -1.1
v -1.7 1.7 -2.1
v -1.7 1.7 -1.1
v -1.9 0 -2.1
v -1.9 0 -1.1
v -1.9 1.8 -2.1
v -1.9 1.8 -1.1
v -1.1 0 -2.1
v -1.1 0.4 -2.1
v -1.1 1.7 -2.1
v -1.1 1.8 -2.1
v -1.2 0.1 -2.1
v -1.2 0.3 -2.1
v -1.2 0.4 -2.1
v -1.3 0.7 -2.1
v -1.3 0.8 -2.1
v -1.3 1 -2.1
v -1.3 1.1 -2.1
v -1.3 1.3 -2.1
v -1.3 1.4 -2.1
v -1.7 0.4 -2.1
v -1.7 0.7 -2.1
v -1.7 0.8 -2.1
v -1.7 1 -2.1
v -1.7 1.1 -2.1
v -1.7 1.3 -2.1
v -1.7 1.4 -2.1
v -1.7 1.6 -2.1
v -1.7 1.7 -2.1
v -1.8 0.1 -2.1
v -1.8 0.3 -2.1
v -1.8 1.6 -2.1
v -1.8 1.7 -2.1
v -1.9 0 -2.1
v -1.9 1.8 -2.1
v -1.1 0 -1.1
v -1.1 0.4 -1.1
v -1.1 1.7 -1.1
v -1.1 1.8 -1.1
v -1.2 0.1 -1.1
v -1.2 0.3 -1.1
v -1.2 0.4 -1.1
v -1.3 0.7 -1.1
v -1.3 0.8 -1.1
v -1.3 1 -1.1
v -1.3 1.1 -1.1
v -1.3 1.3 -1.1
v -1.3 1.4 -1.1
v -1.7 0.4 -1.1
v -1.7 0.7 -1.1
v -1.7 0.8 -1.1
v -1.7 1 -1.1
v -1.7 1.1 -1.1
v -1.7 1.3 -1.1
v -1.7 1.4 -1.1
v -1.7 1.6 -1.1
v -1.7 1.7 -1.1
v -1.8 0.1 -1.1
v -1.8 0.3 -1.1
v -1.8 1.6 -1.1
v -1.8 1.7 -1.1
v -1.9 0 -1.1
v -1.9 1.8 -1.1
v -1.1 0 -2.1
v -1.9 0 -2.1
v -1.1 0 -1.1
v -1.9 0 -1.1
v -1.3 0.7 -2.1
v -1.7 0.7 -2.1
v -1.3 0.7 -1.1
v -1.7 0.7 -1.1
v -1.3 1 -2.1
v -1.7 1 -2.1
v -1.3 1 -1.1
v -1.7 1 -1.1
v -1.3 1.3 -2.1
v -1.7 1.3 -2.1
v -1.3 1.3 -1.1
v -1.7 1.3 -1.1
v -1.1 1.7 -2.1
v -1.7 1.7 -2.1
v -1.1 1.7 -1.1
v -1.7 1.7 -1.1
v -1.1 0.4 -2.1
v -1.2 0.4 -2.1
v -1.7 0.4 -2.1
v -1.1 0.4 -1.1
v -1.2 0.4 -1.1
v -1.7 0.4 -1.1
v -1.3 0.8 -2.1
v -1.7 0.8 -2.1
v -1.3 0.8 -1.1
v -1.7 0.8 -1.1
v -1.3 1.1 -2.1
v -1.7 1.1 -2.1
v -1.3 1.1 -1.1
v -1.7 1.1 -1.1
v -1.3 1.4 -2.1
v -1.7 1.4 -2.1
v -1.3 1.4 -1.1
v -1.7 1.4 -1.1
v -1.1 1.8 -2.1
v -1.9 1.8 -2.1
v -1.1 1.8 -1.1
v -1.9 1.8 -1.1

# faces
f 3/4/1 2/4/1 1/4/1
f 4/4/1 2/4/1 3/4/1
f 7/4/1 6/4/1 5/4/1
f 8/4/1 6/4/1 7/4/1
f 11/2/1 10/2/1 9/2/1
f 12/2/1 10/2/1 11/2/1
f 15/2/1 14/2/1 13/2/1
f 16/2/1 14/2/1 15/2/1
f 19/2/1 18/2/1 17/2/1
f 20/2/1 18/2/1 19/2/1
f 23/2/1 22/2/1 21/2/1
f 24/2/1 22/2/1 23/2/1
f 27/2/1 26/2/1 25/2/1
f 28/2/1 26/2/1 27/2/1
f 31/2/1 30/2/1 29/2/1
f 32/2/1 30/2/1 31/2/1
f 35/2/1 34/2/1 33/2/1
f 36/2/1 34/2/1 35/2/1
f 37/3/1 36/3/1 35/3/1
f 38/3/1 36/3/1 37/3/1
f 39/4/2 40/4/2 41/4/2
f 41/4/2 40/4/2 42/4/2
f 47/4/3 44/4/3 43/4/3
f 48/4/3 44/4/3 47/4/3
f 49/4/3 44/4/3 48/4/3
f 56/2/3 49/2/3 48/2/3
f 57/2/3 51/2/3 50/2/3
f 58/2/3 51/2/3 57/2/3
f 59/2/3 53/2/3 52/2/3
f 60/2/3 53/2/3 59/2/3
f 61/2/3 55/2/3 54/2/3
f 62/2/3 55/2/3 61/2/3
f 64/4/3 46/4/3 45/4/3
f 65/4/3 47/4/3 43/4/3
f 65/1/3 48/1/3 47/1/3
f 66/2/3 63/2/3 62/2/3
f 66/1/3 48/1/3 65/1/3
f 66/2/3 60/2/3 59/2/3
f 66/2/3 56/2/3 48/2/3
f 66/2/3 62/2/3 61/2/3
f 66/2/3 61/2/3 60/2/3
f 66/2/3 58/2/3 57/2/3
f 66/2/3 59/2/3 58/2/3
f 66/2/3 57/2/3 56/2/3
f 67/3/3 64/3/3 63/3/3
f 67/2/3 63/2/3 66/2/3
f 68/4/3 46/4/3 64/4/3
f 68/3/3 64/3/3 67/3/3
f 69/4/3 65/4/3 43/4/3
f 69/4/3 66/4/3 65/4/3
f 69/4/3 68/4/3 67/4/3
f 69/4/3 67/4/3 66/4/3
f 70/4/3 46/4/3 68/4/3
f 70/4/3 68/4/3 69/4/3
f 71/4/4 72/4/4 75/4/4
f 75/4/4 72/4/4 76/4/4
f 76/4/4 72/4/4 77/4/4
f 76/2/4 77/2/4 84/2/4
f 78/2/4 79/2/4 85/2/4
f 85/2/4 79/2/4 86/2/4
f 80/2/4 81/2/4 87/2/4
f 87/2/4 81/2/4 88/2/4
f 82/2/4 83/2/4 89/2/4
f 89/2/4 83/2/4 90/2/4
f 73/4/4 74/4/4 92/4/4
f 71/4/4 75/4/4 93/4/4
f 75/1/4 76/1/4 93/1/4
f 90/2/4 91/2/4 94/2/4
f 93/1/4 76/1/4 94/1/4
f 87/2/4 88/2/4 94/2/4
f 76/2/4 84/2/4 94/2/4
f 89/2/4 90/2/4 94/2/4
f 88/2/4 89/2/4 94/2/4
f 85/2/4 86/2/4 94/2/4
f 86/2/4 87/2/4 94/2/4
f 84/2/4 85/2/4 94/2/4
f 91/3/4 92/3/4 95/3/4
f 94/2/4 91/2/4 95/2/4
f 92/4/4 74/4/4 96/4/4
f 95/3/4 92/3/4 96/3/4
f 71/4/4 93/4/4 97/4/4
f 93/4/4 94/4/4 97/4/4
f 95/4/4 96/4/4 97/4/4
f 94/4/4 95/4/4 97/4/4
f 96/4/4 74/4/4 98/4/4
f 97/4/4 96/4/4 98/4/4
f 101/4/5 100/4/5 99/4/5
f 102/4/5 100/4/5 101/4/5
f 105/2/5 104/2/5 103/2/5
f 106/2/5 104/2/5 105/2/5
f 109/2/5 108/2/5 107/2/5
f 110/2/5 108/2/5 109/2/5
f 113/2/5 112/2/5 111/2/5
f 114/2/5 112/2/5 113/2/5
f 117/4/5 116/4/5 115/4/5
f 118/4/5 116/4/5 117/4/5
f 119/4/6 120/4/6 122/4/6
f 120/2/6 121/2/6 123/2/6
f 122/4/6 120/4/6 123/4/6
f 123/2/6 121/2/6 124/2/6
f 125/2/6 126/2/6 127/2/6
f 127/2/6 126/2/6 128/2/6
f 129/2/6 130/2/6 131/2/6
f 131/2/6 130/2/6 132/2/6
f 133/2/6 134/2/6 135/2/6
f 135/2/6 134/2/6 136/2/6
f 137/4/6 138/4/6 139/4/6
f 139/4/6 138/4/6 140/4/6
