# MagicaVoxel @ Ephtracy

# group
o 

# material
mtllib vegetable_display.mtl
usemtl palette

# normals
vn 0 0 1
vn 0 0 -1
vn 1 0 0
vn -1 0 0
vn 0 -1 0
vn 0 1 0

# texcoords
vt 0.693359 0.5
vt 0.912109 0.5
vt 0.974609 0.5
vt 0.982422 0.5

# verts
v 0.1 0 1.2
v 0 0 1.2
v -1.1 0 1.2
v -1.2 0 1.2
v 0.1 0.4 1.2
v 0 0.4 1.2
v -1.1 0.4 1.2
v -1.2 0.4 1.2
v 0.1 0.6 1.2
v -1.2 0.6 1.2
v 0 0 1.1
v -1.1 0 1.1
v 0 0.4 1.1
v -1.1 0.4 1.1
v 0.1 0 0.6
v 0 0 0.6
v -1.1 0 0.6
v -1.2 0 0.6
v 0.1 0.4 0.6
v 0 0.4 0.6
v -1.1 0.4 0.6
v -1.2 0.4 0.6
v 0 0.5 0.6
v -1.1 0.5 0.6
v 0 0.6 0.6
v -1.1 0.6 0.6
v 0.1 0 -0.3
v 0 0 -0.3
v -1.1 0 -0.3
v -1.2 0 -0.3
v 0.1 0.4 -0.3
v 0 0.4 -0.3
v -1.1 0.4 -0.3
v -1.2 0.4 -0.3
v 0 0.5 -0.3
v -0.5 0.5 -0.3
v -0.6 0.5 -0.3
v -1.1 0.5 -0.3
v 0 0.6 -0.3
v -0.5 0.6 -0.3
v -0.6 0.6 -0.3
v -1.1 0.6 -0.3
v 0.1 0 -1.2
v 0 0 -1.2
v -1.1 0 -1.2
v -1.2 0 -1.2
v 0.1 0.4 -1.2
v 0 0.4 -1.2
v -1.1 0.4 -1.2
v -1.2 0.4 -1.2
v 0 0.5 -1.2
v -0.5 0.5 -1.2
v -0.6 0.5 -1.2
v -1.1 0.5 -1.2
v 0 0.6 -1.2
v -0.5 0.6 -1.2
v -0.6 0.6 -1.2
v -1.1 0.6 -1.2
v 0.1 0 1.1
v 0 0 1.1
v -1.1 0 1.1
v -1.2 0 1.1
v 0.1 0.4 1.1
v 0 0.4 1.1
v -1.1 0.4 1.1
v -1.2 0.4 1.1
v 0 0.5 1.1
v -1.1 0.5 1.1
v 0 0.6 1.1
v -1.1 0.6 1.1
v 0.1 0 0.5
v 0 0 0.5
v -1.1 0 0.5
v -1.2 0 0.5
v 0.1 0.4 0.5
v 0 0.4 0.5
v -1.1 0.4 0.5
v -1.2 0.4 0.5
v 0 0.5 0.5
v -0.5 0.5 0.5
v -0.6 0.5 0.5
v -1.1 0.5 0.5
v 0 0.6 0.5
v -0.5 0.6 0.5
v -0.6 0.6 0.5
v -1.1 0.6 0.5
v 0.1 0 -0.4
v 0 0 -0.4
v -1.1 0 -0.4
v -1.2 0 -0.4
v 0.1 0.4 -0.4
v 0 0.4 -0.4
v -1.1 0.4 -0.4
v -1.2 0.4 -0.4
v 0 0.5 -0.4
v -0.5 0.5 -0.4
v -0.6 0.5 -0.4
v -1.1 0.5 -0.4
v 0 0.6 -0.4
v -0.5 0.6 -0.4
v -0.6 0.6 -0.4
v -1.1 0.6 -0.4
v 0 0 -1.2
v -1.1 0 -1.2
v 0 0.4 -1.2
v -1.1 0.4 -1.2
v 0.1 0 -1.3
v 0 0 -1.3
v -1.1 0 -1.3
v -1.2 0 -1.3
v 0.1 0.4 -1.3
v 0 0.4 -1.3
v -1.1 0.4 -1.3
v -1.2 0.4 -1.3
v 0.1 0.6 -1.3
v -1.2 0.6 -1.3
v 0.1 0 1.2
v 0.1 0.4 1.2
v 0.1 0.6 1.2
v 0.1 0 1.1
v 0.1 0.4 1.1
v 0.1 0 0.6
v 0.1 0.4 0.6
v 0.1 0 0.5
v 0.1 0.4 0.5
v 0.1 0 -0.3
v 0.1 0.4 -0.3
v 0.1 0 -0.4
v 0.1 0.4 -0.4
v 0.1 0 -1.2
v 0.1 0.4 -1.2
v 0.1 0 -1.3
v 0.1 0.4 -1.3
v 0.1 0.6 -1.3
v 0 0 1.1
v 0 0.4 1.1
v 0 0 0.6
v 0 0.4 0.6
v 0 0 0.5
v 0 0.4 0.5
v 0 0 -0.3
v 0 0.4 -0.3
v 0 0 -0.4
v 0 0.4 -0.4
v 0 0 -1.2
v 0 0.4 -1.2
v -0.5 0.5 0.5
v -0.5 0.6 0.5
v -0.5 0.5 -0.3
v -0.5 0.6 -0.3
v -0.5 0.5 -0.4
v -0.5 0.6 -0.4
v -0.5 0.5 -1.2
v -0.5 0.6 -1.2
v -1.1 0 1.2
v -1.1 0.4 1.2
v -1.1 0 1.1
v -1.1 0.4 1.1
v -1.1 0.5 1.1
v -1.1 0.6 1.1
v -1.1 0.5 0.6
v -1.1 0.6 0.6
v -1.1 0.5 0.5
v -1.1 0.6 0.5
v -1.1 0.5 -0.3
v -1.1 0.6 -0.3
v -1.1 0.5 -0.4
v -1.1 0.6 -0.4
v -1.1 0 -1.2
v -1.1 0.4 -1.2
v -1.1 0.5 -1.2
v -1.1 0.6 -1.2
v -1.1 0 -1.3
v -1.1 0.4 -1.3
v 0 0 1.2
v 0 0.4 1.2
v 0 0 1.1
v 0 0.4 1.1
v 0 0.5 1.1
v 0 0.6 1.1
v 0 0.5 0.6
v 0 0.6 0.6
v 0 0.5 0.5
v 0 0.6 0.5
v 0 0.5 -0.3
v 0 0.6 -0.3
v 0 0.5 -0.4
v 0 0.6 -0.4
v 0 0 -1.2
v 0 0.4 -1.2
v 0 0.5 -1.2
v 0 0.6 -1.2
v 0 0 -1.3
v 0 0.4 -1.3
v -0.6 0.5 0.5
v -0.6 0.6 0.5
v -0.6 0.5 -0.3
v -0.6 0.6 -0.3
v -0.6 0.5 -0.4
v -0.6 0.6 -0.4
v -0.6 0.5 -1.2
v -0.6 0.6 -1.2
v -1.1 0 1.1
v -1.1 0.4 1.1
v -1.1 0 0.6
v -1.1 0.4 0.6
v -1.1 0 0.5
v -1.1 0.4 0.5
v -1.1 0 -0.3
v -1.1 0.4 -0.3
v -1.1 0 -0.4
v -1.1 0.4 -0.4
v -1.1 0 -1.2
v -1.1 0.4 -1.2
v -1.2 0 1.2
v -1.2 0.4 1.2
v -1.2 0.6 1.2
v -1.2 0 1.1
v -1.2 0.4 1.1
v -1.2 0 0.6
v -1.2 0.4 0.6
v -1.2 0 0.5
v -1.2 0.4 0.5
v -1.2 0 -0.3
v -1.2 0.4 -0.3
v -1.2 0 -0.4
v -1.2 0.4 -0.4
v -1.2 0 -1.2
v -1.2 0.4 -1.2
v -1.2 0 -1.3
v -1.2 0.4 -1.3
v -1.2 0.6 -1.3
v 0.1 0 1.2
v 0.1 0 1.1
v 0.1 0 0.6
v 0.1 0 0.5
v 0.1 0 -0.3
v 0.1 0 -0.4
v 0.1 0 -1.2
v 0.1 0 -1.3
v 0 0 1.2
v 0 0 1.1
v 0 0 0.6
v 0 0 0.5
v 0 0 -0.3
v 0 0 -0.4
v 0 0 -1.2
v 0 0 -1.3
v -1.1 0 1.2
v -1.1 0 1.1
v -1.1 0 0.6
v -1.1 0 0.5
v -1.1 0 -0.3
v -1.1 0 -0.4
v -1.1 0 -1.2
v -1.1 0 -1.3
v -1.2 0 1.2
v -1.2 0 1.1
v -1.2 0 0.6
v -1.2 0 0.5
v -1.2 0 -0.3
v -1.2 0 -0.4
v -1.2 0 -1.2
v -1.2 0 -1.3
v 0.1 0.4 1.1
v 0.1 0.4 0.6
v 0.1 0.4 0.5
v 0.1 0.4 -0.3
v 0.1 0.4 -0.4
v 0.1 0.4 -1.2
v 0 0.4 1.2
v 0 0.4 1.1
v 0 0.4 0.6
v 0 0.4 0.5
v 0 0.4 -0.3
v 0 0.4 -0.4
v 0 0.4 -1.2
v 0 0.4 -1.3
v -1.1 0.4 1.2
v -1.1 0.4 1.1
v -1.1 0.4 0.6
v -1.1 0.4 0.5
v -1.1 0.4 -0.3
v -1.1 0.4 -0.4
v -1.1 0.4 -1.2
v -1.1 0.4 -1.3
v -1.2 0.4 1.1
v -1.2 0.4 0.6
v -1.2 0.4 0.5
v -1.2 0.4 -0.3
v -1.2 0.4 -0.4
v -1.2 0.4 -1.2
v 0 0.5 1.1
v 0 0.5 0.6
v 0 0.5 0.5
v 0 0.5 -0.3
v 0 0.5 -0.4
v 0 0.5 -1.2
v -0.5 0.5 0.5
v -0.5 0.5 -0.3
v -0.5 0.5 -0.4
v -0.5 0.5 -1.2
v -0.6 0.5 0.5
v -0.6 0.5 -0.3
v -0.6 0.5 -0.4
v -0.6 0.5 -1.2
v -1.1 0.5 1.1
v -1.1 0.5 0.6
v -1.1 0.5 0.5
v -1.1 0.5 -0.3
v -1.1 0.5 -0.4
v -1.1 0.5 -1.2
v 0.1 0.6 1.2
v 0.1 0.6 -1.3
v 0 0.6 1.1
v 0 0.6 0.6
v 0 0.6 0.5
v 0 0.6 -0.3
v 0 0.6 -0.4
v 0 0.6 -1.2
v -0.5 0.6 0.5
v -0.5 0.6 -0.3
v -0.5 0.6 -0.4
v -0.5 0.6 -1.2
v -0.6 0.6 0.5
v -0.6 0.6 -0.3
v -0.6 0.6 -0.4
v -0.6 0.6 -1.2
v -1.1 0.6 1.1
v -1.1 0.6 0.6
v -1.1 0.6 0.5
v -1.1 0.6 -0.3
v -1.1 0.6 -0.4
v -1.1 0.6 -1.2
v -1.2 0.6 1.2
v -1.2 0.6 -1.3

# faces
f 5/3/1 2/3/1 1/3/1
f 6/3/1 2/3/1 5/3/1
f 7/3/1 4/3/1 3/3/1
f 8/3/1 4/3/1 7/3/1
f 9/2/1 6/2/1 5/2/1
f 9/2/1 7/2/1 6/2/1
f 9/2/1 8/2/1 7/2/1
f 10/2/1 8/2/1 9/2/1
f 13/4/1 12/4/1 11/4/1
f 14/4/1 12/4/1 13/4/1
f 19/3/1 16/3/1 15/3/1
f 20/3/1 16/3/1 19/3/1
f 21/3/1 18/3/1 17/3/1
f 22/3/1 18/3/1 21/3/1
f 25/2/1 24/2/1 23/2/1
f 26/2/1 24/2/1 25/2/1
f 31/3/1 28/3/1 27/3/1
f 32/3/1 28/3/1 31/3/1
f 33/3/1 30/3/1 29/3/1
f 34/3/1 30/3/1 33/3/1
f 39/2/1 36/2/1 35/2/1
f 40/2/1 36/2/1 39/2/1
f 41/2/1 38/2/1 37/2/1
f 42/2/1 38/2/1 41/2/1
f 47/3/1 44/3/1 43/3/1
f 48/3/1 44/3/1 47/3/1
f 49/3/1 46/3/1 45/3/1
f 50/3/1 46/3/1 49/3/1
f 55/2/1 52/2/1 51/2/1
f 56/2/1 52/2/1 55/2/1
f 57/2/1 54/2/1 53/2/1
f 58/2/1 54/2/1 57/2/1
f 59/3/2 60/3/2 63/3/2
f 63/3/2 60/3/2 64/3/2
f 61/3/2 62/3/2 65/3/2
f 65/3/2 62/3/2 66/3/2
f 67/2/2 68/2/2 69/2/2
f 69/2/2 68/2/2 70/2/2
f 71/3/2 72/3/2 75/3/2
f 75/3/2 72/3/2 76/3/2
f 73/3/2 74/3/2 77/3/2
f 77/3/2 74/3/2 78/3/2
f 79/2/2 80/2/2 83/2/2
f 83/2/2 80/2/2 84/2/2
f 81/2/2 82/2/2 85/2/2
f 85/2/2 82/2/2 86/2/2
f 87/3/2 88/3/2 91/3/2
f 91/3/2 88/3/2 92/3/2
f 89/3/2 90/3/2 93/3/2
f 93/3/2 90/3/2 94/3/2
f 95/2/2 96/2/2 99/2/2
f 99/2/2 96/2/2 100/2/2
f 97/2/2 98/2/2 101/2/2
f 101/2/2 98/2/2 102/2/2
f 103/4/2 104/4/2 105/4/2
f 105/4/2 104/4/2 106/4/2
f 107/3/2 108/3/2 111/3/2
f 111/3/2 108/3/2 112/3/2
f 109/3/2 110/3/2 113/3/2
f 113/3/2 110/3/2 114/3/2
f 111/2/2 112/2/2 115/2/2
f 112/2/2 113/2/2 115/2/2
f 113/2/2 114/2/2 115/2/2
f 115/2/2 114/2/2 116/2/2
f 120/3/3 118/3/3 117/3/3
f 121/2/3 119/2/3 118/2/3
f 121/3/3 118/3/3 120/3/3
f 123/2/3 119/2/3 121/2/3
f 124/3/3 123/3/3 122/3/3
f 125/2/3 119/2/3 123/2/3
f 125/3/3 123/3/3 124/3/3
f 127/2/3 119/2/3 125/2/3
f 128/3/3 127/3/3 126/3/3
f 129/2/3 119/2/3 127/2/3
f 129/3/3 127/3/3 128/3/3
f 131/2/3 119/2/3 129/2/3
f 132/3/3 131/3/3 130/3/3
f 133/2/3 119/2/3 131/2/3
f 133/3/3 131/3/3 132/3/3
f 134/2/3 119/2/3 133/2/3
f 137/4/3 136/4/3 135/4/3
f 138/4/3 136/4/3 137/4/3
f 141/4/3 140/4/3 139/4/3
f 142/4/3 140/4/3 141/4/3
f 145/4/3 144/4/3 143/4/3
f 146/4/3 144/4/3 145/4/3
f 149/2/3 148/2/3 147/2/3
f 150/2/3 148/2/3 149/2/3
f 153/2/3 152/2/3 151/2/3
f 154/2/3 152/2/3 153/2/3
f 157/3/3 156/3/3 155/3/3
f 158/3/3 156/3/3 157/3/3
f 161/2/3 160/2/3 159/2/3
f 162/2/3 160/2/3 161/2/3
f 165/2/3 164/2/3 163/2/3
f 166/2/3 164/2/3 165/2/3
f 171/2/3 168/2/3 167/2/3
f 172/2/3 168/2/3 171/2/3
f 173/3/3 170/3/3 169/3/3
f 174/3/3 170/3/3 173/3/3
f 175/3/4 176/3/4 177/3/4
f 177/3/4 176/3/4 178/3/4
f 179/2/4 180/2/4 181/2/4
f 181/2/4 180/2/4 182/2/4
f 183/2/4 184/2/4 185/2/4
f 185/2/4 184/2/4 186/2/4
f 187/2/4 188/2/4 191/2/4
f 191/2/4 188/2/4 192/2/4
f 189/3/4 190/3/4 193/3/4
f 193/3/4 190/3/4 194/3/4
f 195/2/4 196/2/4 197/2/4
f 197/2/4 196/2/4 198/2/4
f 199/2/4 200/2/4 201/2/4
f 201/2/4 200/2/4 202/2/4
f 203/4/4 204/4/4 205/4/4
f 205/4/4 204/4/4 206/4/4
f 207/4/4 208/4/4 209/4/4
f 209/4/4 208/4/4 210/4/4
f 211/4/4 212/4/4 213/4/4
f 213/4/4 212/4/4 214/4/4
f 215/3/4 216/3/4 218/3/4
f 216/2/4 217/2/4 219/2/4
f 218/3/4 216/3/4 219/3/4
f 219/2/4 217/2/4 221/2/4
f 220/3/4 221/3/4 222/3/4
f 221/2/4 217/2/4 223/2/4
f 222/3/4 221/3/4 223/3/4
f 223/2/4 217/2/4 225/2/4
f 224/3/4 225/3/4 226/3/4
f 225/2/4 217/2/4 227/2/4
f 226/3/4 225/3/4 227/3/4
f 227/2/4 217/2/4 229/2/4
f 228/3/4 229/3/4 230/3/4
f 229/2/4 217/2/4 231/2/4
f 230/3/4 229/3/4 231/3/4
f 231/2/4 217/2/4 232/2/4
f 241/3/5 234/3/5 233/3/5
f 242/3/5 234/3/5 241/3/5
f 243/3/5 236/3/5 235/3/5
f 244/3/5 236/3/5 243/3/5
f 245/3/5 238/3/5 237/3/5
f 246/3/5 238/3/5 245/3/5
f 247/3/5 240/3/5 239/3/5
f 248/3/5 240/3/5 247/3/5
f 250/4/5 246/4/5 245/4/5
f 250/4/5 247/4/5 246/4/5
f 250/4/5 244/4/5 243/4/5
f 250/4/5 245/4/5 244/4/5
f 250/4/5 243/4/5 242/4/5
f 251/4/5 247/4/5 250/4/5
f 252/4/5 247/4/5 251/4/5
f 253/4/5 247/4/5 252/4/5
f 254/4/5 247/4/5 253/4/5
f 255/4/5 247/4/5 254/4/5
f 257/3/5 250/3/5 249/3/5
f 258/3/5 250/3/5 257/3/5
f 259/3/5 252/3/5 251/3/5
f 260/3/5 252/3/5 259/3/5
f 261/3/5 254/3/5 253/3/5
f 262/3/5 254/3/5 261/3/5
f 263/3/5 256/3/5 255/3/5
f 264/3/5 256/3/5 263/3/5
f 272/2/5 266/2/5 265/2/5
f 273/2/5 266/2/5 272/2/5
f 274/2/5 268/2/5 267/2/5
f 275/2/5 268/2/5 274/2/5
f 276/2/5 270/2/5 269/2/5
f 277/2/5 270/2/5 276/2/5
f 279/2/5 272/2/5 271/2/5
f 280/2/5 272/2/5 279/2/5
f 285/2/5 278/2/5 277/2/5
f 286/2/5 278/2/5 285/2/5
f 287/2/5 281/2/5 280/2/5
f 288/2/5 281/2/5 287/2/5
f 289/2/5 283/2/5 282/2/5
f 290/2/5 283/2/5 289/2/5
f 291/2/5 285/2/5 284/2/5
f 292/2/5 285/2/5 291/2/5
f 295/2/6 296/2/6 299/2/6
f 299/2/6 296/2/6 300/2/6
f 297/2/6 298/2/6 301/2/6
f 301/2/6 298/2/6 302/2/6
f 293/2/6 294/2/6 307/2/6
f 307/2/6 294/2/6 308/2/6
f 303/2/6 304/2/6 309/2/6
f 309/2/6 304/2/6 310/2/6
f 305/2/6 306/2/6 311/2/6
f 311/2/6 306/2/6 312/2/6
f 313/2/6 314/2/6 315/2/6
f 315/2/6 314/2/6 316/2/6
f 316/2/6 314/2/6 317/2/6
f 317/2/6 314/2/6 318/2/6
f 318/2/6 314/2/6 319/2/6
f 319/2/6 314/2/6 320/2/6
f 316/2/6 317/2/6 321/2/6
f 318/2/6 319/2/6 322/2/6
f 322/2/6 319/2/6 323/2/6
f 320/2/6 314/2/6 324/2/6
f 322/2/6 323/2/6 325/2/6
f 323/2/6 324/2/6 325/2/6
f 316/2/6 321/2/6 325/2/6
f 321/2/6 322/2/6 325/2/6
f 325/2/6 324/2/6 326/2/6
f 326/2/6 324/2/6 327/2/6
f 324/2/6 314/2/6 328/2/6
f 327/2/6 324/2/6 328/2/6
f 313/2/6 315/2/6 329/2/6
f 316/2/6 325/2/6 330/2/6
f 330/2/6 325/2/6 331/2/6
f 326/2/6 327/2/6 332/2/6
f 332/2/6 327/2/6 333/2/6
f 328/2/6 314/2/6 334/2/6
f 332/2/6 333/2/6 335/2/6
f 333/2/6 334/2/6 335/2/6
f 330/2/6 331/2/6 335/2/6
f 313/2/6 329/2/6 335/2/6
f 331/2/6 332/2/6 335/2/6
f 329/2/6 330/2/6 335/2/6
f 334/2/6 314/2/6 336/2/6
f 335/2/6 334/2/6 336/2/6
